<svg width="15" height="15" viewBox="0 0 15 15" fill="none" xmlns="http://www.w3.org/2000/svg">
<path d="M9.80053 4.05376L2.48073 11.3712L2.00208 13.0034L3.60162 12.5411L10.9457 5.19938L9.80053 4.05376ZM11.0494 2.80532L12.1946 3.95013L13.262 2.88305C13.3379 2.80713 13.3806 2.70419 13.3806 2.59684C13.3806 2.4895 13.3379 2.38655 13.262 2.31064L12.6886 1.73824C12.6127 1.66235 12.5097 1.61971 12.4023 1.61971C12.2949 1.61971 12.1919 1.66235 12.116 1.73824L11.0494 2.80532ZM13.8346 0.593427L14.4072 1.16583C14.7868 1.5454 15 2.06014 15 2.59684C15 3.13355 14.7868 3.64829 14.4072 4.02785L4.452 13.9806L1.03426 14.9683C0.894954 15.0085 0.747415 15.0105 0.607051 14.9742C0.466686 14.9379 0.338643 14.8646 0.236288 14.7619C0.133933 14.6593 0.0610206 14.5311 0.0251617 14.3906C-0.0106972 14.2502 -0.00818733 14.1027 0.0324292 13.9636L1.04317 10.5186L10.9724 0.592618C11.3521 0.213165 11.867 0 12.4039 0C12.9408 0 13.4557 0.213165 13.8354 0.592618L13.8346 0.593427Z" fill="#2C1106"/>
</svg>
