<svg width="50" height="50" viewBox="0 0 50 50" fill="none" xmlns="http://www.w3.org/2000/svg">
<path d="M27.0834 17.5292V29.2834C27.0834 29.8359 26.8639 30.3658 26.4732 30.7565C26.0825 31.1472 25.5526 31.3667 25 31.3667C24.4475 31.3667 23.9176 31.1472 23.5269 30.7565C23.1362 30.3658 22.9167 29.8359 22.9167 29.2834V17.5292L20.5813 19.8667C20.1901 20.2576 19.6596 20.4771 19.1066 20.4769C18.5535 20.4767 18.0232 20.2569 17.6323 19.8657C17.2414 19.4745 17.0219 18.944 17.0221 18.391C17.0223 17.8379 17.2422 17.3076 17.6334 16.9167L23.5271 11.0271C23.7201 10.833 23.9496 10.6789 24.2024 10.5738C24.4552 10.4687 24.7263 10.4146 25 10.4146C25.2738 10.4146 25.5449 10.4687 25.7976 10.5738C26.0504 10.6789 26.2799 10.833 26.4729 11.0271L32.3667 16.9188C32.5602 17.1125 32.7138 17.3424 32.8185 17.5954C32.9232 17.8485 32.977 18.1196 32.9769 18.3935C32.9768 18.6673 32.9228 18.9385 32.8179 19.1914C32.713 19.4444 32.5593 19.6742 32.3656 19.8677C32.1719 20.0613 31.942 20.2148 31.689 20.3195C31.436 20.4242 31.1648 20.4781 30.8909 20.478C30.6171 20.4779 30.346 20.4238 30.093 20.319C29.8401 20.2141 29.6102 20.0604 29.4167 19.8667L27.0834 17.5292ZM16.6667 22.9167C17.2192 22.9167 17.7491 23.1362 18.1398 23.5269C18.5305 23.9176 18.75 24.4475 18.75 25C18.75 25.5526 18.5305 26.0825 18.1398 26.4732C17.7491 26.8639 17.2192 27.0834 16.6667 27.0834H14.5834V35.4167H35.4167V27.0834H33.3334C32.7808 27.0834 32.2509 26.8639 31.8602 26.4732C31.4695 26.0825 31.25 25.5526 31.25 25C31.25 24.4475 31.4695 23.9176 31.8602 23.5269C32.2509 23.1362 32.7808 22.9167 33.3334 22.9167H35.4167C36.5218 22.9167 37.5816 23.3557 38.363 24.1371C39.1444 24.9185 39.5834 25.9783 39.5834 27.0834V35.4167C39.5834 36.5218 39.1444 37.5816 38.363 38.363C37.5816 39.1444 36.5218 39.5834 35.4167 39.5834H14.5834C13.4783 39.5834 12.4185 39.1444 11.6371 38.363C10.8557 37.5816 10.4167 36.5218 10.4167 35.4167V27.0834C10.4167 25.9783 10.8557 24.9185 11.6371 24.1371C12.4185 23.3557 13.4783 22.9167 14.5834 22.9167H16.6667Z" fill="#2C1106"/>
</svg>
